<svg width="103" height="103" viewBox="0 0 103 103" fill="none" xmlns="http://www.w3.org/2000/svg">
<g id="logo email">
<path id="Vector" d="M91.5555 17.1667H11.4444C9.92676 17.1667 8.47129 17.7696 7.39817 18.8427C6.32504 19.9158 5.72217 21.3713 5.72217 22.8889V80.1111C5.72217 81.6288 6.32504 83.0842 7.39817 84.1573C8.47129 85.2305 9.92676 85.8334 11.4444 85.8334H91.5555C93.0731 85.8334 94.5286 85.2305 95.6017 84.1573C96.6749 83.0842 97.2777 81.6288 97.2777 80.1111V22.8889C97.2777 21.3713 96.6749 19.9158 95.6017 18.8427C94.5286 17.7696 93.0731 17.1667 91.5555 17.1667ZM87.1494 80.1111H16.1938L36.2216 59.3967L32.1016 55.4197L11.4444 76.7922V27.2378L47.008 62.6297C48.0801 63.6955 49.5304 64.2937 51.0422 64.2937C52.5539 64.2937 54.0042 63.6955 55.0763 62.6297L91.5555 26.3509V76.4203L70.4977 55.3625L66.4636 59.3967L87.1494 80.1111ZM15.1924 22.8889H86.9205L51.0422 58.567L15.1924 22.8889Z" fill="#0F0E0E"/>
</g>
</svg>
