<svg width="103" height="103" viewBox="0 0 103 103" fill="none" xmlns="http://www.w3.org/2000/svg">
<g id="logo jam">
<path id="Vector" d="M49.3543 12.875C60.1674 12.875 70.5376 17.1705 78.1837 24.8165C85.8297 32.4625 90.1252 42.8327 90.1252 53.6458C90.1252 64.4589 85.8297 74.8291 78.1837 82.4752C70.5376 90.1212 60.1674 94.4167 49.3543 94.4167C38.5412 94.4167 28.171 90.1212 20.525 82.4752C12.879 74.8291 8.5835 64.4589 8.5835 53.6458C8.5835 42.8327 12.879 32.4625 20.525 24.8165C28.171 17.1705 38.5412 12.875 49.3543 12.875ZM49.3543 17.1667C39.6795 17.1667 30.4008 21.01 23.5597 27.8512C16.7185 34.6923 12.8752 43.971 12.8752 53.6458C12.8752 63.3207 16.7185 72.5993 23.5597 79.4405C30.4008 86.2817 39.6795 90.125 49.3543 90.125C54.1448 90.125 58.8884 89.1814 63.3143 87.3482C67.7402 85.5149 71.7616 82.8279 75.149 79.4405C78.5364 76.0531 81.2234 72.0317 83.0567 67.6058C84.8899 63.18 85.8335 58.4363 85.8335 53.6458C85.8335 43.971 81.9902 34.6923 75.149 27.8512C68.3078 21.01 59.0292 17.1667 49.3543 17.1667ZM47.2085 30.0417H51.5002V53.3025L71.671 64.9329L69.5252 68.6667L47.2085 55.7917V30.0417Z" fill="black"/>
</g>
</svg>
