<svg width="97" height="97" viewBox="0 0 97 97" fill="none" xmlns="http://www.w3.org/2000/svg">
<g id="logo location">
<path id="Vector" d="M48.5002 46.4791C45.8204 46.4791 43.2503 45.4146 41.3554 43.5197C39.4605 41.6248 38.396 39.0548 38.396 36.375C38.396 33.6952 39.4605 31.1252 41.3554 29.2303C43.2503 27.3354 45.8204 26.2708 48.5002 26.2708C51.18 26.2708 53.75 27.3354 55.6449 29.2303C57.5398 31.1252 58.6043 33.6952 58.6043 36.375C58.6043 37.7019 58.343 39.0158 57.8352 40.2417C57.3274 41.4676 56.5831 42.5814 55.6449 43.5197C54.7066 44.458 53.5928 45.2022 52.3669 45.71C51.141 46.2178 49.8271 46.4791 48.5002 46.4791ZM48.5002 8.08331C40.9967 8.08331 33.8007 11.064 28.4949 16.3698C23.1892 21.6755 20.2085 28.8716 20.2085 36.375C20.2085 57.5937 48.5002 88.9166 48.5002 88.9166C48.5002 88.9166 76.7918 57.5937 76.7918 36.375C76.7918 28.8716 73.8111 21.6755 68.5054 16.3698C63.1997 11.064 56.0036 8.08331 48.5002 8.08331Z" fill="#070707"/>
</g>
</svg>
