<svg width="81" height="81" viewBox="0 0 81 81" fill="none" xmlns="http://www.w3.org/2000/svg">
<g id="mdi:airplane-search">
<g id="Vector">
<path d="M32.2313 32.5013L36.7875 41.2425C38.8125 37.6988 41.8838 34.7963 45.5625 32.8725L42.9637 21.7688L56.0925 8.64C58.05 6.64875 58.05 3.375 56.0925 1.47825C54.135 -0.4185 50.895 -0.4995 48.9375 1.47825L35.8088 14.6138L4.75875 7.45875L0 12.2175L25.0763 25.3125L11.9475 38.475L3.5775 37.2938L0 40.8713L10.7325 46.8113L16.7062 57.5775L20.25 54L19.1025 45.5625L32.2313 32.5013ZM55.6875 37.125C64.125 37.125 70.875 43.875 70.875 52.3125C70.875 55.2825 70.0312 58.0838 68.5462 60.4125L78.9412 70.875L74.25 75.5663L63.72 65.205C61.3912 66.6563 58.6237 67.5 55.6875 67.5C47.25 67.5 40.5 60.75 40.5 52.3125C40.5 43.875 47.25 37.125 55.6875 37.125ZM55.6875 43.875C53.4497 43.875 51.3036 44.764 49.7213 46.3463C48.1389 47.9286 47.25 50.0747 47.25 52.3125C47.25 54.5503 48.1389 56.6964 49.7213 58.2787C51.3036 59.8611 53.4497 60.75 55.6875 60.75C57.9253 60.75 60.0714 59.8611 61.6537 58.2787C63.2361 56.6964 64.125 54.5503 64.125 52.3125C64.125 50.0747 63.2361 47.9286 61.6537 46.3463C60.0714 44.764 57.9253 43.875 55.6875 43.875Z" fill="url(#paint0_linear_6_4)" style="mix-blend-mode:color-dodge"/>
</g>
</g>
<defs>
<linearGradient id="paint0_linear_6_4" x1="39.4706" y1="0.0251541" x2="39.4706" y2="75.5663" gradientUnits="userSpaceOnUse">
<stop stop-color="#1B3A55"/>
<stop offset="1" stop-color="white"/>
</linearGradient>
</defs>
</svg>
