<svg width="35" height="36" viewBox="0 0 35 36" fill="none" xmlns="http://www.w3.org/2000/svg">
<path id="search_logo" d="M32.2778 36L20.0278 23.4C19.0556 24.2 17.9375 24.8333 16.6736 25.3C15.4097 25.7667 14.0648 26 12.6389 26C9.10648 26 6.11722 24.7413 3.67111 22.224C1.225 19.7067 0.00129733 16.632 1.02881e-06 13C-0.00129527 9.368 1.22241 6.29333 3.67111 3.776C6.11982 1.25867 9.10907 0 12.6389 0C16.1687 0 19.1586 1.25867 21.6086 3.776C24.0586 6.29333 25.2817 9.368 25.2778 13C25.2778 14.4667 25.0509 15.85 24.5972 17.15C24.1435 18.45 23.5278 19.6 22.75 20.6L35 33.2L32.2778 36ZM12.6389 22C15.0694 22 17.1357 21.1253 18.8378 19.376C20.5398 17.6267 21.3902 15.5013 21.3889 13C21.3876 10.4987 20.5372 8.374 18.8378 6.626C17.1383 4.878 15.072 4.00267 12.6389 4C10.2057 3.99733 8.14009 4.87267 6.44195 6.626C4.7438 8.37933 3.89278 10.504 3.88889 13C3.885 15.496 4.73602 17.6213 6.44195 19.376C8.14787 21.1307 10.2135 22.0053 12.6389 22Z" fill="#0D0D0D"/>
</svg>
